HIERARCHY
ROOT Haolin_28_06:Solving:Hips
{
	OFFSET 0.000000 0.000000 0.000000
	CHANNELS 6 Xposition Yposition Zposition Xrotation Yrotation Zrotation
	JOINT Haolin_28_06:Solving:Spine
	{
		OFFSET 0.000000 -12.181966 2.015561
		CHANNELS 6 Xposition Yposition Zposition Xrotation Yrotation Zrotation
		JOINT Haolin_28_06:Solving:Spine1
		{
			OFFSET 0.000000 -8.890296 1.567602
			CHANNELS 6 Xposition Yposition Zposition Xrotation Yrotation Zrotation
			JOINT Haolin_28_06:Solving:Spine2
			{
				OFFSET 0.000000 -8.993092 0.786796
				CHANNELS 6 Xposition Yposition Zposition Xrotation Yrotation Zrotation
				JOINT Haolin_28_06:Solving:Spine3
				{
					OFFSET 0.000000 -9.027443 0.000000
					CHANNELS 6 Xposition Yposition Zposition Xrotation Yrotation Zrotation
					JOINT Haolin_28_06:Solving:Neck
					{
						OFFSET 0.000000 -11.606712 -1.160669
						CHANNELS 6 Xposition Yposition Zposition Xrotation Yrotation Zrotation
						JOINT Haolin_28_06:Solving:Neck1
						{
							OFFSET 0.000000 -7.471592 -0.653680
							CHANNELS 6 Xposition Yposition Zposition Xrotation Yrotation Zrotation
							JOINT Haolin_28_06:Solving:Head
							{
								OFFSET 0.000000 -7.386181 -1.302382
								CHANNELS 6 Xposition Yposition Zposition Xrotation Yrotation Zrotation
								JOINT Haolin_28_06:Solving:HeadEnd
								{
									OFFSET 0.000000 -9.728081 0.000002
									CHANNELS 6 Xposition Yposition Zposition Xrotation Yrotation Zrotation
									End Site
									{
										OFFSET 0.000000 -9.728081 0.000002
									}
								}
							}
						}
					}
					JOINT Haolin_28_06:Solving:RightShoulder
					{
						OFFSET 0.000000 -8.290508 -5.270916
						CHANNELS 6 Xposition Yposition Zposition Xrotation Yrotation Zrotation
						JOINT Haolin_28_06:Solving:RightArm
						{
							OFFSET -19.261074 -0.000008 0.000000
							CHANNELS 6 Xposition Yposition Zposition Xrotation Yrotation Zrotation
							JOINT Haolin_28_06:Solving:RightForeArm
							{
								OFFSET -30.691700 -0.000011 0.000000
								CHANNELS 6 Xposition Yposition Zposition Xrotation Yrotation Zrotation
								JOINT Haolin_28_06:Solving:RightHand
								{
									OFFSET -20.216934 -0.000008 0.000000
									CHANNELS 6 Xposition Yposition Zposition Xrotation Yrotation Zrotation
									JOINT Haolin_28_06:Solving:RightHandThumb1
									{
										OFFSET -4.948814 2.881329 -3.679893
										CHANNELS 6 Xposition Yposition Zposition Xrotation Yrotation Zrotation
										End Site
										{
											OFFSET -7.039886 -0.000004 -7.104978
										}
									}
									JOINT Haolin_28_06:Solving:RightHandMiddle1
									{
										OFFSET -13.196846 -0.000004 0.084595
										CHANNELS 6 Xposition Yposition Zposition Xrotation Yrotation Zrotation
										End Site
										{
											OFFSET -10.002037 -0.000004 0.000000
										}
									}
								}
							}
						}
					}
					JOINT Haolin_28_06:Solving:LeftShoulder
					{
						OFFSET 0.000000 -8.290508 -5.270916
						CHANNELS 6 Xposition Yposition Zposition Xrotation Yrotation Zrotation
						JOINT Haolin_28_06:Solving:LeftArm
						{
							OFFSET 19.261074 -0.000008 0.000000
							CHANNELS 6 Xposition Yposition Zposition Xrotation Yrotation Zrotation
							JOINT Haolin_28_06:Solving:LeftForeArm
							{
								OFFSET 30.691700 -0.000011 0.000000
								CHANNELS 6 Xposition Yposition Zposition Xrotation Yrotation Zrotation
								JOINT Haolin_28_06:Solving:LeftHand
								{
									OFFSET 20.216934 -0.000008 0.000000
									CHANNELS 6 Xposition Yposition Zposition Xrotation Yrotation Zrotation
									JOINT Haolin_28_06:Solving:LeftHandThumb1
									{
										OFFSET 4.948814 2.881329 -3.679893
										CHANNELS 6 Xposition Yposition Zposition Xrotation Yrotation Zrotation
										End Site
										{
											OFFSET 7.039886 -0.000004 -7.104978
										}
									}
									JOINT Haolin_28_06:Solving:LeftHandMiddle1
									{
										OFFSET 13.196846 -0.000004 0.084595
										CHANNELS 6 Xposition Yposition Zposition Xrotation Yrotation Zrotation
										End Site
										{
											OFFSET 10.002037 -0.000004 0.000000
										}
									}
								}
							}
						}
					}
				}
			}
		}
	}
	JOINT Haolin_28_06:Solving:RightUpLeg
	{
		OFFSET -10.083070 0.000000 0.000000
		CHANNELS 6 Xposition Yposition Zposition Xrotation Yrotation Zrotation
		JOINT Haolin_28_06:Solving:RightLeg
		{
			OFFSET 0.000000 47.042522 -0.000008
			CHANNELS 6 Xposition Yposition Zposition Xrotation Yrotation Zrotation
			JOINT Haolin_28_06:Solving:RightFoot
			{
				OFFSET 0.000000 38.766415 -0.000006
				CHANNELS 6 Xposition Yposition Zposition Xrotation Yrotation Zrotation
				JOINT Haolin_28_06:Solving:RightForeFoot
				{
					OFFSET 0.000000 3.531212 -0.000000
					CHANNELS 6 Xposition Yposition Zposition Xrotation Yrotation Zrotation
					JOINT Haolin_28_06:Solving:RightToeBase
					{
						OFFSET 0.000000 0.000000 -13.829352
						CHANNELS 6 Xposition Yposition Zposition Xrotation Yrotation Zrotation
						JOINT Haolin_28_06:Solving:RightToeBaseEnd
						{
							OFFSET 0.000000 0.000000 -4.034167
							CHANNELS 6 Xposition Yposition Zposition Xrotation Yrotation Zrotation
							End Site
							{
								OFFSET 0.000000 -4.034164 0.000004
							}
						}
					}
				}
			}
		}
	}
	JOINT Haolin_28_06:Solving:LeftUpLeg
	{
		OFFSET 10.083070 0.000000 0.000000
		CHANNELS 6 Xposition Yposition Zposition Xrotation Yrotation Zrotation
		JOINT Haolin_28_06:Solving:LeftLeg
		{
			OFFSET 0.000000 47.042522 -0.000008
			CHANNELS 6 Xposition Yposition Zposition Xrotation Yrotation Zrotation
			JOINT Haolin_28_06:Solving:LeftFoot
			{
				OFFSET 0.000000 38.766415 -0.000006
				CHANNELS 6 Xposition Yposition Zposition Xrotation Yrotation Zrotation
				JOINT Haolin_28_06:Solving:LeftForeFoot
				{
					OFFSET 0.000000 3.531212 -0.000000
					CHANNELS 6 Xposition Yposition Zposition Xrotation Yrotation Zrotation
					JOINT Haolin_28_06:Solving:LeftToeBase
					{
						OFFSET 0.000000 0.000000 -13.829352
						CHANNELS 6 Xposition Yposition Zposition Xrotation Yrotation Zrotation
						JOINT Haolin_28_06:Solving:LeftToeBaseEnd
						{
							OFFSET 0.000000 0.000000 -4.855067
							CHANNELS 6 Xposition Yposition Zposition Xrotation Yrotation Zrotation
							End Site
							{
								OFFSET 0.000000 -4.855064 0.000004
							}
						}
					}
				}
			}
		}
	}
}
MOTION
Frames: 4
Frame Time: 0.041667
35.832748 -170.499405 -91.253197 106.813626 -0.425304 2.867943 -0.000003 -12.181976 2.015530 23.999931 0.397349 0.402414 -0.000007 -8.890285 1.567602 5.468957 -0.206757 0.097360 0.000007 -8.993117 0.786760 5.264312 -0.959144 1.561440 0.000000 -9.027412 0.000000 1.011567 -1.001802 3.010053 -0.000004 -11.606714 -1.160685 -9.781061 4.045650 -0.827790 -0.000005 -7.471581 -0.653672 -3.298973 2.592152 -1.919119 -0.000004 -7.386187 -1.302381 -0.333901 0.554621 -2.020729 -0.000005 -9.728088 -0.000011 0.000003 0.000000 -0.000000 0.000004 -8.290497 -5.270944 -0.000011 12.409175 11.837996 -19.261070 -0.000012 -0.000006 -47.159902 -50.963948 -93.348230 -30.691719 -0.000005 -0.000007 -22.757444 -16.945786 -6.970759 -20.216927 -0.000016 -0.000002 3.359035 -14.974677 12.797535 -4.948812 2.881304 -3.679875 -0.000004 0.000002 0.000003 -13.196838 -0.000043 0.084597 -0.000002 -0.000002 0.000000 0.000004 -8.290497 -5.270944 -0.000003 -2.775505 -15.287394 19.261066 0.000003 -0.000001 -54.248832 55.194339 93.271909 30.691715 -0.000009 0.000026 -7.029573 13.713373 1.674399 20.216932 -0.000017 -0.000000 0.161973 0.696878 -13.085978 4.948804 2.881334 -3.679897 0.000003 -0.000005 -0.000004 13.196852 0.000013 0.084586 0.000001 0.000000 -0.000003 -10.083071 -0.000002 -0.000005 -37.850176 13.167655 10.264152 0.000004 47.042515 0.000003 29.184425 0.000001 -0.000000 -0.000010 38.766415 0.000030 0.036963 5.700333 8.852080 0.000005 3.531205 0.000016 0.000001 -0.000002 -0.000005 -0.000004 0.000005 -13.829354 -5.102057 -0.000003 -0.000001 0.000000 -0.000014 -4.034159 0.000003 -0.000002 -0.000003 10.083065 -0.000017 -0.000020 -38.586273 -13.401973 -4.013768 0.000001 47.042538 0.000011 35.321511 0.000002 -0.000001 0.000008 38.766418 0.000010 -7.181400 -1.364538 2.772583 -0.000023 3.531212 -0.000023 0.000001 -0.000000 -0.000001 -0.000009 0.000003 -13.829350 2.127787 -0.000003 -0.000000 -0.000006 0.000007 -4.855046 -0.000001 -0.000003 0.000000 
35.692211 -170.794601 -91.062393 107.414895 -0.532785 2.881955 -0.000006 -12.181956 2.015522 24.078918 0.422895 0.424763 -0.000007 -8.890312 1.567616 5.612896 -0.214796 0.103283 -0.000001 -8.993094 0.786784 5.384650 -0.994511 1.588213 0.000002 -9.027442 0.000023 0.919506 -1.012005 3.028501 -0.000011 -11.606713 -1.160685 -9.979444 4.069643 -0.808268 -0.000001 -7.471619 -0.653695 -3.553376 2.661650 -1.972944 0.000003 -7.386205 -1.302383 -0.611427 0.571953 -2.053376 0.000000 -9.728127 -0.000026 0.000005 -0.000000 -0.000000 -0.000010 -8.290516 -5.270920 -0.000008 12.349755 11.936156 -19.261084 -0.000041 -0.000036 -47.727408 -50.972349 -92.946731 -30.691690 -0.000020 -0.000006 -22.769639 -16.649628 -6.857597 -20.216909 -0.000032 -0.000011 3.386582 -14.945646 12.922840 -4.948823 2.881338 -3.679895 -0.000010 -0.000000 -0.000001 -13.196856 0.000021 0.084594 -0.000008 0.000005 -0.000002 -0.000009 -8.290520 -5.270927 -0.000004 -2.716986 -15.512137 19.261080 -0.000002 -0.000006 -55.231515 55.014899 93.119411 30.691715 -0.000033 0.000028 -7.552064 13.443139 1.765386 20.216932 -0.000019 -0.000017 0.205643 0.837436 -13.797430 4.948833 2.881325 -3.679886 0.000000 -0.000002 0.000004 13.196855 0.000004 0.084616 0.000002 -0.000001 0.000001 -10.083071 0.000019 -0.000017 -38.634989 12.528105 10.842598 -0.000004 47.042557 0.000022 28.868580 -0.000001 -0.000002 -0.000001 38.766399 -0.000031 0.394323 5.806445 8.893039 0.000001 3.531205 -0.000019 0.000000 -0.000001 -0.000002 -0.000004 -0.000004 -13.829341 -5.217681 -0.000003 -0.000000 -0.000004 -0.000000 -4.034161 0.000001 0.000001 0.000004 10.083065 0.000004 -0.000038 -39.739635 -13.356357 -4.106209 -0.000007 47.042492 -0.000004 36.006756 0.000001 -0.000000 -0.000008 38.766411 0.000024 -7.336088 -1.359843 2.753039 -0.000015 3.531219 -0.000004 -0.000002 -0.000002 -0.000000 -0.000001 0.000003 -13.829352 2.154639 -0.000003 0.000002 0.000026 -0.000015 -4.855070 0.000001 0.000002 -0.000001 
35.550556 -171.087784 -90.868057 108.028581 -0.683238 2.934121 0.000002 -12.181956 2.015563 24.108425 0.402489 0.386432 -0.000006 -8.890318 1.567594 5.783577 -0.215695 0.082389 -0.000010 -8.993121 0.786794 5.577387 -0.958593 1.611212 -0.000000 -9.027447 -0.000002 0.790586 -0.998889 3.058158 0.000007 -11.606691 -1.160638 -10.208466 4.084071 -0.816147 -0.000005 -7.471615 -0.653653 -3.775434 2.694141 -1.999880 -0.000001 -7.386195 -1.302402 -0.885409 0.578043 -2.043974 0.000000 -9.728104 -0.000019 0.000001 0.000000 -0.000000 0.000008 -8.290482 -5.270895 -0.000001 12.227650 12.104807 -19.261076 -0.000014 -0.000020 -48.317827 -50.888782 -92.592080 -30.691681 -0.000031 -0.000009 -22.736651 -16.333216 -6.721274 -20.216911 -0.000029 0.000012 3.404317 -14.934557 12.997479 -4.948809 2.881322 -3.679859 -0.000005 -0.000009 0.000006 -13.196851 -0.000012 0.084602 -0.000008 -0.000001 0.000003 0.000006 -8.290501 -5.270903 -0.000006 -2.684561 -15.717179 19.261084 0.000013 -0.000003 -56.161777 54.876953 92.903639 30.691713 -0.000046 0.000011 -8.071290 13.215173 1.856818 20.216913 -0.000027 -0.000009 0.259466 1.011550 -14.387172 4.948812 2.881304 -3.679905 -0.000001 0.000002 -0.000013 13.196826 -0.000005 0.084579 -0.000000 0.000002 -0.000006 -10.083072 0.000008 -0.000017 -39.410417 12.010994 11.428083 0.000000 47.042542 0.000001 28.498981 -0.000002 -0.000001 -0.000007 38.766418 -0.000004 0.807156 5.860904 9.036625 0.000003 3.531204 -0.000053 0.000000 -0.000003 -0.000001 0.000012 -0.000007 -13.829396 -5.025252 0.000000 -0.000004 0.000002 0.000007 -4.034184 -0.000001 -0.000002 0.000003 10.083065 0.000001 0.000022 -40.912256 -13.256024 -4.201878 0.000012 47.042549 0.000009 36.695096 -0.000000 -0.000001 0.000015 38.766426 -0.000044 -7.481782 -1.317319 2.736358 0.000008 3.531212 -0.000002 -0.000001 0.000003 0.000002 -0.000002 -0.000012 -13.829369 2.138257 -0.000002 0.000000 -0.000022 0.000000 -4.855103 0.000002 0.000002 -0.000001 
35.398609 -171.371323 -90.665535 108.607740 -0.810678 2.990794 -0.000009 -12.181980 2.015518 24.192752 0.415954 0.348476 0.000001 -8.890288 1.567613 5.957626 -0.215877 0.074263 0.000004 -8.993097 0.786781 5.769349 -0.946490 1.635015 0.000003 -9.027437 0.000026 0.660693 -0.988637 3.093360 -0.000002 -11.606723 -1.160647 -10.427765 4.053060 -0.808625 -0.000005 -7.471600 -0.653643 -4.034436 2.694858 -2.048592 0.000012 -7.386185 -1.302415 -1.163587 0.585297 -2.049786 -0.000008 -9.728096 -0.000047 0.000007 -0.000001 -0.000000 -0.000002 -8.290546 -5.270924 -0.000009 12.082883 12.308917 -19.261076 -0.000025 0.000015 -48.929409 -50.768595 -92.279182 -30.691713 -0.000012 0.000003 -22.727707 -16.040858 -6.602331 -20.216919 -0.000018 -0.000013 3.421809 -14.932440 13.063920 -4.948833 2.881320 -3.679892 -0.000001 -0.000007 0.000005 -13.196842 -0.000004 0.084583 -0.000000 -0.000002 0.000004 -0.000004 -8.290550 -5.270924 -0.000003 -2.709206 -15.940108 19.261080 0.000001 -0.000010 -57.107598 54.570182 92.679240 30.691702 -0.000038 -0.000005 -8.493190 12.983308 1.921520 20.216923 -0.000011 0.000020 0.324827 1.247280 -14.598466 4.948829 2.881327 -3.679925 -0.000000 -0.000007 -0.000001 13.196837 -0.000002 0.084568 -0.000002 0.000001 -0.000001 -10.083073 0.000012 -0.000041 -40.138665 11.523823 11.991276 0.000002 47.042572 0.000001 28.114821 -0.000002 -0.000002 -0.000013 38.766403 0.000003 1.138790 6.026737 9.079749 -0.000016 3.531212 -0.000021 0.000000 -0.000006 -0.000003 0.000005 0.000011 -13.829377 -4.974977 -0.000001 -0.000001 0.000001 -0.000016 -4.034143 -0.000001 0.000003 0.000003 10.083069 -0.000011 -0.000034 -42.049903 -13.162635 -4.318475 -0.000010 47.042477 0.000006 37.390651 -0.000005 -0.000003 0.000001 38.766422 -0.000035 -7.660175 -1.299063 2.736542 0.000008 3.531212 0.000001 -0.000002 0.000001 0.000000 -0.000005 -0.000005 -13.829342 2.128510 -0.000001 0.000003 -0.000008 -0.000008 -4.855083 -0.000000 0.000002 0.000002 
